<svg width="30" height="37" viewBox="0 0 30 37" fill="none" xmlns="http://www.w3.org/2000/svg">
<g clip-path="url(#clip0_1359_5671)">
<path d="M21.9012 21.3563C21.6604 21.3564 21.425 21.2849 21.2247 21.1511C21.0244 21.0172 20.8683 20.8269 20.7761 20.6042C20.6839 20.3815 20.6598 20.1365 20.7067 19.9001C20.7537 19.6637 20.8696 19.4465 21.0398 19.276C21.2101 19.1056 21.427 18.9895 21.6632 18.9424C21.8994 18.8953 22.1442 18.9194 22.3668 19.0116C22.5893 19.1038 22.7795 19.26 22.9133 19.4604C23.0471 19.6608 23.1186 19.8964 23.1186 20.1374C23.1183 20.4605 22.9899 20.7702 22.7617 20.9988C22.5335 21.2273 22.224 21.3558 21.9012 21.3563ZM8.44364 21.3563C8.20282 21.3564 7.96739 21.2849 7.76712 21.1511C7.56686 21.0172 7.41075 20.8269 7.31855 20.6042C7.22635 20.3815 7.20219 20.1365 7.24913 19.9001C7.29607 19.6637 7.41199 19.4465 7.58225 19.276C7.75251 19.1056 7.96945 18.9895 8.20564 18.9424C8.44183 18.8953 8.68666 18.9194 8.90917 19.0116C9.13168 19.1038 9.32188 19.26 9.45572 19.4604C9.58955 19.6608 9.66101 19.8964 9.66105 20.1374C9.66075 20.4605 9.5324 20.7703 9.30417 20.9988C9.07594 21.2273 8.76647 21.3559 8.44364 21.3563ZM22.3379 14.0158L24.7711 9.79779C24.8043 9.74018 24.826 9.67656 24.8347 9.61059C24.8434 9.54461 24.839 9.47757 24.8219 9.41327C24.8047 9.34898 24.775 9.2887 24.7346 9.23588C24.6941 9.18306 24.6437 9.13873 24.5861 9.10542C24.5286 9.07211 24.465 9.05048 24.3991 9.04175C24.3332 9.03303 24.2662 9.03739 24.202 9.05457C24.1377 9.07176 24.0775 9.10144 24.0247 9.14193C23.9719 9.18241 23.9277 9.2329 23.8944 9.29051L21.4304 13.5618C19.5463 12.7011 17.4301 12.2219 15.1722 12.2219C12.9143 12.2219 10.7984 12.7018 8.91422 13.5618L6.4505 9.29051C6.41726 9.23288 6.37301 9.18237 6.32027 9.14186C6.26753 9.10134 6.20734 9.07162 6.14312 9.05439C6.07891 9.03716 6.01193 9.03276 5.94602 9.04144C5.8801 9.05011 5.81654 9.0717 5.75896 9.10496C5.70138 9.13823 5.65091 9.18251 5.61044 9.2353C5.56996 9.28808 5.54026 9.34833 5.52305 9.4126C5.50583 9.47687 5.50143 9.54391 5.5101 9.60988C5.51877 9.67585 5.54034 9.73947 5.57358 9.7971L8.00702 14.0158C3.82868 16.2904 0.970774 20.5241 0.552734 25.5262H29.7921C29.3736 20.5241 26.516 16.2904 22.3379 14.0158Z" fill="black"/>
</g>
<defs>
<clipPath id="clip0_1359_5671">
<rect width="29.2392" height="35.8667" fill="white" transform="translate(0.552734 0.265625)"/>
</clipPath>
</defs>
</svg>
