<svg width="44" height="44" viewBox="0 0 44 44" fill="none" xmlns="http://www.w3.org/2000/svg">
<path d="M27.276 43.51C27.2827 43.4464 27.2862 43.3817 27.2862 43.3163V27.788H32.5943C33.4454 27.788 34.2115 27.2275 34.3359 26.3856C34.5416 24.9929 34.4542 23.7264 34.3211 22.8259C34.1989 21.9991 33.4621 21.4549 32.6265 21.4549H27.2862C27.2862 16.6695 28.0825 15.9731 32.5713 15.886C33.4325 15.8693 34.2057 15.3007 34.3307 14.4483C34.5408 13.0156 34.4571 11.7639 34.3252 10.8832C34.2034 10.0698 33.474 9.53956 32.6516 9.54675C24.7181 9.61594 20.1996 10.554 20.1996 21.4549H16.0895C15.2907 21.4549 14.5815 21.9555 14.4607 22.7451C14.3306 23.5958 14.2519 24.8289 14.4691 26.3287C14.5947 27.1951 15.374 27.788 16.2495 27.788H20.1996V43.5567C14.0567 43.5163 9.65973 43.2739 6.79671 43.0413C3.64586 42.7853 1.21473 40.3541 0.958728 37.2033C0.703993 34.068 0.4375 29.093 0.4375 22C0.4375 14.907 0.703993 9.932 0.958728 6.79671C1.21473 3.64585 3.64586 1.21473 6.79672 0.958728C9.932 0.703984 14.907 0.4375 22 0.4375C29.093 0.4375 34.068 0.703993 37.2033 0.958728C40.3541 1.21473 42.7853 3.64586 43.0413 6.79671C43.296 9.932 43.5625 14.907 43.5625 22C43.5625 29.093 43.296 34.068 43.0413 37.2033C42.7853 40.3542 40.3541 42.7853 37.2033 43.0413C34.9125 43.2274 31.6396 43.4198 27.276 43.51Z" fill="white"/>
</svg>
