<svg width="30" height="37" viewBox="0 0 30 37" fill="none" xmlns="http://www.w3.org/2000/svg">
<g clip-path="url(#clip0_1359_5666)">
<path d="M28.7587 12.5018C26.3685 13.9788 24.8922 16.5109 24.8922 19.3242C24.8922 22.4893 26.7903 25.373 29.6726 26.5686C29.1102 28.3973 28.2666 30.0853 27.2121 31.6327C25.6655 33.813 24.0486 36.0637 21.6584 36.0637C19.2682 36.0637 18.5652 34.6571 15.7532 34.6571C13.0115 34.6571 12.0273 36.1341 9.77768 36.1341C7.52807 36.1341 5.98147 34.0944 4.22396 31.5624C1.90405 28.0456 0.568347 23.9663 0.498047 19.6759C0.498047 12.7128 4.99726 8.9851 9.49648 8.9851C11.8867 8.9851 13.8551 10.5325 15.3314 10.5325C16.7374 10.5325 18.987 8.91477 21.6584 8.91477C24.4704 8.84444 27.1418 10.1808 28.7587 12.5018ZM20.393 5.96074C21.5881 4.55405 22.2208 2.7957 22.2911 0.967013C22.2911 0.756011 22.2911 0.474674 22.2208 0.263672C20.1821 0.474674 18.284 1.45935 16.9483 3.0067C15.7532 4.34305 15.0502 6.03107 14.9799 7.85976C14.9799 8.07076 14.9799 8.28176 15.0502 8.49276C15.1908 8.49276 15.4017 8.5631 15.5423 8.5631C17.4404 8.42243 19.1979 7.43775 20.393 5.96074Z" fill="black"/>
</g>
<defs>
<clipPath id="clip0_1359_5666">
<rect width="29.1746" height="35.8704" fill="white" transform="translate(0.498047 0.263672)"/>
</clipPath>
</defs>
</svg>
