<svg width="46" height="46" viewBox="0 0 46 46" fill="none" xmlns="http://www.w3.org/2000/svg">
<path d="M23.0009 17.411C21.8954 17.411 20.8146 17.7389 19.8954 18.353C18.9761 18.9675 18.2597 19.8404 17.8365 20.8617C17.4135 21.8831 17.3027 23.0073 17.5185 24.0915C17.7341 25.1758 18.2666 26.1719 19.0484 26.9535C19.83 27.7355 20.8261 28.2679 21.9105 28.4834C22.9946 28.699 24.1187 28.5884 25.1401 28.1654C26.1615 27.7422 27.0346 27.0257 27.6487 26.1065C28.2631 25.1873 28.5909 24.1065 28.5909 23.0009C28.5909 22.2669 28.4464 21.5399 28.1654 20.8617C27.8844 20.1836 27.4727 19.5674 26.9535 19.0484C26.4345 18.5292 25.8182 18.1175 25.1401 17.8365C24.462 17.5557 23.735 17.411 23.0009 17.411ZM45.3832 11.8887C45.3713 10.1482 45.0507 8.42335 44.4366 6.79475C43.984 5.60297 43.2841 4.52063 42.3827 3.61922C41.4812 2.71781 40.3989 2.01785 39.2071 1.56532C37.5785 0.951029 35.8537 0.630563 34.1132 0.618679C31.2054 0.460938 30.3491 0.460938 23.0009 0.460938C15.6528 0.460938 14.7965 0.460938 11.8887 0.618679C10.1482 0.630563 8.42335 0.951029 6.79475 1.56532C5.60297 2.01785 4.52063 2.71781 3.61922 3.61922C2.71781 4.52063 2.01785 5.60297 1.56532 6.79475C0.951029 8.42335 0.630563 10.1482 0.618679 11.8887C0.460938 14.7965 0.460938 15.6528 0.460938 23.0009C0.460938 30.3491 0.460938 31.2054 0.618679 34.1132C0.643021 35.86 0.963104 37.59 1.56532 39.2297C2.01574 40.416 2.71532 41.4922 3.61654 42.3853C4.51411 43.2921 5.59875 43.9923 6.79475 44.4366C8.42335 45.0507 10.1482 45.3713 11.8887 45.3832C14.7965 45.5409 15.6528 45.5409 23.0009 45.5409C30.3491 45.5409 31.2054 45.5409 34.1132 45.3832C35.8537 45.3713 37.5785 45.0507 39.2071 44.4366C40.4031 43.9923 41.4878 43.2921 42.3853 42.3853C43.2867 41.4922 43.9861 40.416 44.4366 39.2297C45.0503 37.5931 45.3705 35.8612 45.3832 34.1132C45.5409 31.2054 45.5409 30.3491 45.5409 23.0009C45.5409 15.6528 45.5409 14.7965 45.3832 11.8887ZM39.6579 29.9207C39.5857 31.3116 39.2888 32.6818 38.7789 33.9779C38.3414 35.0593 37.6908 36.0412 36.8663 36.8663C36.0412 37.691 35.0593 38.3414 33.9779 38.7789C32.6696 39.2604 31.2919 39.5268 29.8983 39.5678H16.1036C14.7102 39.5268 13.3323 39.2604 12.024 38.7789C10.9062 38.3636 9.89688 37.7008 9.07118 36.8404C8.25449 36.032 7.62371 35.055 7.22294 33.9779C6.73955 32.6709 6.48042 31.2917 6.45665 29.8983V16.1036C6.48042 14.7104 6.73955 13.331 7.22294 12.024C7.63828 10.9062 8.30106 9.89688 9.16145 9.07118C9.97355 8.2589 10.9493 7.62889 12.024 7.22294C13.3323 6.74147 14.7102 6.47505 16.1036 6.43404H29.8983C31.2919 6.47505 32.6696 6.74147 33.9779 7.22294C35.0957 7.63828 36.105 8.30106 36.9307 9.16145C37.7472 9.9701 38.3782 10.9468 38.7789 12.024C39.2604 13.3323 39.5268 14.7102 39.5678 16.1036V23.0009C39.5678 27.6443 39.7256 28.1175 39.6579 29.8983V29.9207ZM36.0515 13.151C35.7832 12.4229 35.36 11.7616 34.8114 11.2131C34.2629 10.6643 33.6014 10.2411 32.8735 9.97278C31.8738 9.62625 30.8207 9.45854 29.7629 9.47694H16.2389C15.1758 9.48729 14.1226 9.68566 13.1284 10.0631C12.4115 10.3191 11.7574 10.7251 11.2094 11.2535C10.6614 11.7821 10.2321 12.4211 9.95035 13.1284C9.62299 14.1323 9.46295 15.1832 9.47694 16.2389V29.7629C9.49936 30.825 9.69735 31.8761 10.0631 32.8735C10.3314 33.6014 10.7544 34.2629 11.3031 34.8114C11.8519 35.36 12.5131 35.7832 13.2411 36.0515C14.2029 36.4053 15.2149 36.6031 16.2389 36.6376H29.7629C30.8261 36.6273 31.8793 36.4289 32.8735 36.0515C33.6014 35.7832 34.2629 35.36 34.8114 34.8114C35.36 34.2629 35.7832 33.6014 36.0515 32.8735C36.4289 31.8793 36.6273 30.8261 36.6376 29.7629V16.2389C36.6384 15.1746 36.4395 14.1195 36.0515 13.1284V13.151ZM23.0009 31.6112C21.8713 31.6112 20.7529 31.3883 19.7094 30.9553C18.666 30.5223 17.7182 29.8879 16.9205 29.0879C16.1228 28.2881 15.4907 27.3387 15.0604 26.2943C14.6303 25.2498 14.4102 24.1306 14.4131 23.0009C14.4131 21.2972 14.9187 19.6314 15.866 18.215C16.813 16.7986 18.1591 15.695 19.7338 15.0439C21.3083 14.393 23.0408 14.2238 24.7116 14.5578C26.3823 14.8919 27.9164 15.7142 29.1199 16.9205C30.323 18.127 31.1414 19.6633 31.4711 21.335C31.8007 23.0069 31.6271 24.7388 30.9718 26.3116C30.3169 27.8844 29.2096 29.2276 27.7907 30.1712C26.3718 31.1144 24.7049 31.6158 23.0009 31.6112ZM32.0169 16.0812C31.5186 16.0285 31.0576 15.7931 30.7224 15.4207C30.3874 15.0483 30.2019 14.5649 30.2019 14.0639C30.2019 13.5629 30.3872 13.0795 30.7224 12.7069C31.0576 12.3343 31.5186 12.0993 32.0169 12.0464C32.5153 12.0993 32.9762 12.3345 33.3115 12.7069C33.6467 13.0795 33.832 13.5627 33.832 14.0639C33.832 14.5651 33.6467 15.0481 33.3115 15.4207C32.9762 15.7933 32.5153 16.0285 32.0169 16.0812Z" fill="white"/>
</svg>
