<svg width="46" height="46" viewBox="0 0 46 46" fill="none" xmlns="http://www.w3.org/2000/svg">
<g filter="url(#filter0_d_1366_7021)">
<path d="M42.5949 0H3.39609C1.51836 0 0 1.48242 0 3.31523V42.6758C0 44.5086 1.51836 46 3.39609 46H42.5949C44.4727 46 46 44.5086 46 42.6848V3.31523C46 1.48242 44.4727 0 42.5949 0ZM13.6473 39.1988H6.81914V17.241H13.6473V39.1988ZM10.2332 14.2492C8.04102 14.2492 6.27109 12.4793 6.27109 10.2961C6.27109 8.11289 8.04102 6.34297 10.2332 6.34297C12.4164 6.34297 14.1863 8.11289 14.1863 10.2961C14.1863 12.4703 12.4164 14.2492 10.2332 14.2492ZM39.1988 39.1988H32.3797V28.5254C32.3797 25.9828 32.3348 22.7035 28.8309 22.7035C25.282 22.7035 24.743 25.4797 24.743 28.3457V39.1988H17.9328V17.241H24.4734V20.2418H24.5633C25.4707 18.5168 27.6988 16.693 31.0141 16.693C37.923 16.693 39.1988 21.2391 39.1988 27.1508V39.1988V39.1988Z" fill="white"/>
</g>
<defs>
<filter id="filter0_d_1366_7021" x="-11.5" y="-11.5" width="69" height="69" filterUnits="userSpaceOnUse" color-interpolation-filters="sRGB">
<feFlood flood-opacity="0" result="BackgroundImageFix"/>
<feColorMatrix in="SourceAlpha" type="matrix" values="0 0 0 0 0 0 0 0 0 0 0 0 0 0 0 0 0 0 127 0" result="hardAlpha"/>
<feMorphology radius="11.5" operator="erode" in="SourceAlpha" result="effect1_dropShadow_1366_7021"/>
<feOffset/>
<feGaussianBlur stdDeviation="11.5"/>
<feColorMatrix type="matrix" values="0 0 0 0 0.086 0 0 0 0 0.1316 0 0 0 0 0.2 0 0 0 0.04 0"/>
<feBlend mode="normal" in2="BackgroundImageFix" result="effect1_dropShadow_1366_7021"/>
<feBlend mode="normal" in="SourceGraphic" in2="effect1_dropShadow_1366_7021" result="shape"/>
</filter>
</defs>
</svg>
